<?xml version="1.0" encoding="UTF-8"?>
<svg id="Capa_1" xmlns="http://www.w3.org/2000/svg" version="1.1" viewBox="0 0 1200 1200">
  <!-- Generator: Adobe Illustrator 30.1.0, SVG Export Plug-In . SVG Version: 2.1.1 Build 136)  -->
  <defs>
    <style>
      .st0 {
        fill: #0e0142;
      }

      .st1 {
        fill: #5f43d1;
      }
    </style>
  </defs>
  <path class="st0" d="M816.6,811.6l198,378.1h-313.2l-136.3-261.3c-26,4.4-53.1,7.6-81.2,9.7v251.6H185.3V9.9h298.6v654c41.1-7.5,77.9-24.3,110.4-50.3,32.5-26,57.3-58.7,74.7-98.2,17.3-39.5,26.5-82.5,27.6-129h282.4c-3.3,186.1-57.4,327.8-162.3,425.2Z"/>
  <path class="st1" d="M837.4,291.9c-24.9,0-48.2-6.2-70.1-18.7-21.9-12.4-39.1-29.6-51.5-51.5-12.5-21.9-18.7-45.3-18.7-70.1,0-38.8,13.7-72.1,41-100,27.3-27.8,60.4-41.8,99.2-41.8s72.1,13.9,100,41.8c27.8,27.9,41.8,61.2,41.8,100s-13.9,71.9-41.8,99.2c-27.9,27.4-61.2,41-100,41Z"/>
</svg>