<?xml version="1.0" encoding="UTF-8"?>
<svg id="Capa_1" xmlns="http://www.w3.org/2000/svg" version="1.1" viewBox="0 0 1920 357.4">
  <!-- Generator: Adobe Illustrator 30.1.0, SVG Export Plug-In . SVG Version: 2.1.1 Build 136)  -->
  <defs>
    <style>
      .st0 {
        fill: #0e0142;
      }

      .st1 {
        fill: #5f43d1;
      }
    </style>
  </defs>
  <path class="st0" d="M200.4,174.2c1.5,0,3.3.4,5.5,1.1,2.2.8,6.2,2.9,11.9,6.4,5.7,3.5,10.8,7.8,15.3,12.9,4.4,5.1,8.4,12.6,11.9,22.7,3.5,10.1,5.3,21.4,5.3,34s-1,19.9-3.1,28.5c-2.1,8.6-5.1,15.8-9.1,21.6-4,5.8-8.3,11-12.8,15.4-4.6,4.4-10,8-16.4,10.6-6.3,2.6-12.1,4.7-17.2,6.4-5.2,1.7-11.1,2.9-17.9,3.7-6.8.8-12.2,1.2-16.1,1.4-4,.2-8.6.2-13.9.2H7.2V17.6h141.1c9.7,0,18.3.4,25.9,1.1,7.5.8,16,2.8,25.4,6.2,9.4,3.4,17.2,8,23.2,13.8,6,5.8,11.2,14.1,15.5,24.8,4.3,10.7,6.4,23.6,6.4,38.6s-.8,15.5-2.4,22.5c-1.6,7-3.8,12.9-6.4,17.7-2.7,4.7-5.5,9.1-8.6,13.1-3.1,4-6.2,7-9.3,9.2-3.1,2.1-6,4-8.6,5.5-2.7,1.5-4.7,2.6-6.2,3.2l-2.7.9ZM132.4,88.3h-41.1v56h38.9c7.7,0,13.8-.9,18.3-2.8,4.6-1.8,8-4.9,10.4-9.2,2.4-4.3,3.5-9.9,3.5-17,0-10.1-2.6-17.1-7.7-21.1-5.2-4-12.6-6-22.3-6ZM134.1,267c7.7,0,13.8-.8,18.6-2.3,4.7-1.5,8.4-4.5,11.1-9,2.7-4.4,4-10.5,4-18.1,0-11-3-18.5-8.8-22.5-5.9-4-14.2-6-24.8-6h-42.9v57.9h42.9Z"/>
  <path class="st0" d="M379.1,115.8c36.5,0,64.2,10.6,82.9,31.8,18.7,21.2,28.1,48.6,28.1,82.2s-2.1,30.7-6.4,44.2c-4.3,13.6-10.8,25.6-19.5,36-8.7,10.5-20.3,18.6-34.7,24.5-14.5,5.9-31.3,8.8-50.4,8.8s-35.5-3-50-8.8c-14.5-5.9-26-14.1-34.7-24.5-8.7-10.5-15.3-22.5-19.7-36-4.4-13.6-6.6-28.4-6.6-44.4s2.1-30.8,6.4-44.2c4.3-13.4,10.8-25.4,19.5-36,8.7-10.6,20.3-18.9,34.7-24.8,14.4-5.9,31.2-8.8,50.4-8.8ZM350.3,229.6c0,33.2,9.6,49.7,28.7,49.7s28.7-16.6,28.7-49.7-9.6-49.7-28.7-49.7-28.7,16.6-28.7,49.7Z"/>
  <path class="st0" d="M617,115.8c36.5,0,64.2,10.6,82.9,31.8,18.7,21.2,28.1,48.6,28.1,82.2s-2.1,30.7-6.4,44.2c-4.3,13.6-10.8,25.6-19.5,36-8.7,10.5-20.3,18.6-34.7,24.5-14.5,5.9-31.3,8.8-50.4,8.8s-35.5-3-50-8.8c-14.5-5.9-26-14.1-34.7-24.5-8.7-10.5-15.3-22.5-19.7-36s-6.6-28.4-6.6-44.4,2.1-30.8,6.4-44.2c4.3-13.4,10.8-25.4,19.5-36,8.7-10.6,20.3-18.9,34.7-24.8,14.4-5.9,31.2-8.8,50.4-8.8ZM588.2,229.6c0,33.2,9.6,49.7,28.7,49.7s28.7-16.6,28.7-49.7-9.6-49.7-28.7-49.7-28.7,16.6-28.7,49.7Z"/>
  <path class="st0" d="M923.8,236.1l53.9,103h-85.3l-37.1-71.2c-7.1,1.2-14.5,2.1-22.1,2.7v68.5h-81.4V17.6h81.4v178.2c11.2-2.1,21.2-6.6,30.1-13.7,8.8-7.1,15.6-16,20.3-26.7,4.7-10.8,7.2-22.5,7.5-35.2h76.9c-.9,50.7-15.6,89.3-44.2,115.8Z"/>
  <path class="st1" d="M929.5,94.5c-6.8,0-13.1-1.7-19.1-5.1-6-3.4-10.6-8.1-14-14-3.4-6-5.1-12.3-5.1-19.1,0-10.6,3.7-19.6,11.2-27.2,7.5-7.6,16.5-11.4,27-11.4s19.6,3.8,27.2,11.4c7.6,7.6,11.4,16.7,11.4,27.2s-3.8,19.6-11.4,27c-7.6,7.5-16.7,11.2-27.2,11.2Z"/>
  <path class="st0" d="M1177.6,204.7h84.5c0,43.1-11,77.1-32.8,101.9-21.9,24.9-54.2,37.3-96.9,37.3s-45.5-4.2-63.8-12.7c-18.3-8.4-32.8-20.2-43.5-35.3-10.7-15.1-18.8-32.2-24.1-51.5-5.3-19.3-8-40.5-8-63.7s2.6-44.4,8-63.7c5.3-19.3,13.4-36.5,24.3-51.5,10.9-15.1,25.5-26.8,43.7-35.3,18.3-8.4,39.4-12.7,63.4-12.7,43.2,0,75.4,12.1,96.4,36.2,21.1,24.1,31.6,58.5,31.6,103h-84.9c0-12.3-1.3-22.7-3.8-31-2.5-8.3-7-15-13.6-20.1-6.6-5.1-15.1-7.7-25.7-7.7-19,0-32.9,7.6-41.8,22.8-8.9,15.2-13.4,35.2-13.4,59.9s4.5,44.7,13.4,59.9c8.9,15.2,22.9,22.8,41.8,22.8,30.1,0,45.2-19.6,45.2-58.8Z"/>
  <path class="st0" d="M1425.7,115.8c21.5,0,38.4,7.7,50.6,23,12.2,15.3,18.3,37.4,18.3,66.3v134h-80.9v-126.9c0-21.2-7.2-31.8-21.7-31.8s-9.1,1.6-13.1,4.9c-4,3.3-6.8,6.5-8.6,9.7l-2.7,4.9v139.3h-81.4V17.6h81.4v130.4c.6-.9,1.4-2.1,2.4-3.5,1-1.5,3.3-4,6.9-7.7,3.5-3.7,7.4-6.9,11.5-9.7,4.1-2.8,9.6-5.4,16.4-7.7,6.8-2.4,13.7-3.5,20.8-3.5Z"/>
  <path class="st0" d="M1724.6,267c0,10.3,6.6,15.5,19.9,15.5v56.6h-37.1c-5.9,0-11.3-.6-16.4-1.8-5-1.2-9.2-2.7-12.6-4.4-3.4-1.8-6.5-3.8-9.3-6-2.8-2.2-5-4.5-6.6-6.8-1.6-2.4-2.9-4.4-4-6.2-1-1.8-1.8-3.2-2.4-4.4l-.4-1.8c-.3.9-.9,2.1-1.8,3.8-.9,1.6-3.2,4.5-6.8,8.6-3.7,4.1-8,7.8-12.8,11-4.9,3.3-11.7,6.1-20.6,8.6-8.8,2.5-18.4,3.8-28.7,3.8-22.4,0-39.4-5.6-50.9-16.8-11.5-11.2-17.2-24.8-17.2-40.7,0-49.5,43.8-74.3,131.3-74.3v-16.4c0-6.2-2.3-11-6.9-14.4-4.6-3.4-10.8-5.1-18.8-5.1s-11.9.9-16.1,2.7c-4.3,1.8-7.3,4-9.1,6.6-1.8,2.7-3,5.3-3.8,8-.7,2.7-1.1,4.9-1.1,6.6l.4,2.7h-67.2c0-10,.7-18.8,2-26.3,1.3-7.5,4-15.3,8.2-23.2,4.1-8,9.8-14.5,17-19.7,7.2-5.2,17.1-9.4,29.6-12.6,12.5-3.2,27.5-4.9,44.9-4.9s33.5,2.2,46.4,6.6,23.1,10.7,30.3,18.8c7.2,8.1,12.5,17,15.7,26.5,3.2,9.6,4.9,20.4,4.9,32.5v66.8ZM1648.1,272.8v-27.4c-4.1,0-8.8.4-14.2,1.1-5.3.7-11.3,1.9-17.9,3.5-6.6,1.6-12.2,4.4-16.6,8.2-4.4,3.8-6.6,8.4-6.6,13.7s1.7,8.6,5.1,11.7c3.4,3.1,8.5,4.6,15.3,4.6s7.6-.5,11.3-1.5c3.7-1,6.9-2.4,9.7-4,2.8-1.6,5.2-3.2,7.3-4.6,2.1-1.5,3.7-2.8,4.9-4l1.8-1.3Z"/>
  <path class="st0" d="M1877.6,275l33.2-.4v64.6h-53.5c-14.7,0-27.4-1.8-38-5.5-10.6-3.7-18.6-8.1-24.1-13.3-5.5-5.2-9.7-11.9-12.8-20.3-3.1-8.4-5-15.7-5.7-21.9-.7-6.2-1.1-13.7-1.1-22.6v-81.8h-30.5v-53.1h11.5c6.5,0,12.4-2.4,17.7-7.3,5.3-4.9,9.5-10.7,12.6-17.5,3.1-6.8,5.7-13.6,7.7-20.3,2.1-6.8,3.5-12.5,4.4-17.2l.9-7.1h57v69.4h49.1v53.1h-49.1v81.8c0,13,6.9,19.5,20.8,19.5Z"/>
</svg>