<?xml version="1.0" encoding="UTF-8"?>
<svg id="Capa_1" xmlns="http://www.w3.org/2000/svg" version="1.1" viewBox="0 0 859.3 1200">
  <!-- Generator: Adobe Illustrator 30.1.0, SVG Export Plug-In . SVG Version: 2.1.1 Build 136)  -->
  <defs>
    <style>
      .st0 {
        fill: #0e0142;
      }

      .st1 {
        fill: #5f43d1;
      }
    </style>
  </defs>
  <path class="st0" d="M641.9,810.6l196.9,376h-311.4l-135.5-259.8c-25.8,4.3-52.7,7.5-80.7,9.7v250.1H14.2V13.5h296.9v650.3c40.9-7.5,77.5-24.2,109.7-50,32.3-25.8,57-58.3,74.2-97.6,17.2-39.3,26.3-82,27.4-128.3h280.8c-3.2,185-57,326-161.4,422.8Z"/>
  <path class="st1" d="M662.5,293.8c-24.7,0-48-6.2-69.7-18.6-21.8-12.3-38.8-29.4-51.2-51.2-12.4-21.8-18.6-45-18.6-69.7,0-38.6,13.6-71.7,40.8-99.4,27.2-27.7,60.1-41.5,98.6-41.5s71.7,13.9,99.4,41.5c27.7,27.7,41.5,60.8,41.5,99.4s-13.9,71.5-41.5,98.6c-27.7,27.2-60.8,40.8-99.4,40.8Z"/>
</svg>